<?xml version="1.0" encoding="UTF-8" standalone="no"?>
<svg
   xmlns:dc="http://purl.org/dc/elements/1.1/"
   xmlns:cc="http://creativecommons.org/ns#"
   xmlns:rdf="http://www.w3.org/1999/02/22-rdf-syntax-ns#"
   xmlns:svg="http://www.w3.org/2000/svg"
   xmlns="http://www.w3.org/2000/svg"
   xmlns:sodipodi="http://sodipodi.sourceforge.net/DTD/sodipodi-0.dtd"
   xmlns:inkscape="http://www.inkscape.org/namespaces/inkscape"
   sodipodi:docname="File Archive.svg"
   inkscape:version="1.0 (4035a4fb49, 2020-05-01)"
   id="svg831"
   version="1.1"
   viewBox="0 0 22.577778 22.577778"
   height="64pt"
   width="64pt"
   inkscape:export-filename="D:\Project ++\Flat\png\Brush Paint.png"
   inkscape:export-xdpi="576"
   inkscape:export-ydpi="576">
  <defs
     id="defs825">
    <pattern
       y="0"
       x="0"
       height="6"
       width="6"
       patternUnits="userSpaceOnUse"
       id="EMFhbasepattern" />
    <pattern
       y="0"
       x="0"
       height="6"
       width="6"
       patternUnits="userSpaceOnUse"
       id="EMFhbasepattern-9" />
    <pattern
       y="0"
       x="0"
       height="6"
       width="6"
       patternUnits="userSpaceOnUse"
       id="EMFhbasepattern-0" />
    <pattern
       y="0"
       x="0"
       height="6"
       width="6"
       patternUnits="userSpaceOnUse"
       id="EMFhbasepattern-7" />
    <pattern
       y="0"
       x="0"
       height="6"
       width="6"
       patternUnits="userSpaceOnUse"
       id="EMFhbasepattern-2" />
    <pattern
       y="0"
       x="0"
       height="6"
       width="6"
       patternUnits="userSpaceOnUse"
       id="EMFhbasepattern-98" />
    <pattern
       y="0"
       x="0"
       height="6"
       width="6"
       patternUnits="userSpaceOnUse"
       id="EMFhbasepattern-6" />
    <pattern
       y="0"
       x="0"
       height="6"
       width="6"
       patternUnits="userSpaceOnUse"
       id="EMFhbasepattern-01" />
    <pattern
       y="0"
       x="0"
       height="6"
       width="6"
       patternUnits="userSpaceOnUse"
       id="EMFhbasepattern-07" />
    <pattern
       y="0"
       x="0"
       height="6"
       width="6"
       patternUnits="userSpaceOnUse"
       id="EMFhbasepattern-8" />
    <pattern
       y="0"
       x="0"
       height="6"
       width="6"
       patternUnits="userSpaceOnUse"
       id="EMFhbasepattern-4" />
    <pattern
       y="0"
       x="0"
       height="6"
       width="6"
       patternUnits="userSpaceOnUse"
       id="EMFhbasepattern-40" />
    <pattern
       y="0"
       x="0"
       height="6"
       width="6"
       patternUnits="userSpaceOnUse"
       id="EMFhbasepattern-08" />
    <pattern
       y="0"
       x="0"
       height="6"
       width="6"
       patternUnits="userSpaceOnUse"
       id="EMFhbasepattern-04" />
    <pattern
       y="0"
       x="0"
       height="6"
       width="6"
       patternUnits="userSpaceOnUse"
       id="EMFhbasepattern-014" />
    <pattern
       y="0"
       x="0"
       height="6"
       width="6"
       patternUnits="userSpaceOnUse"
       id="EMFhbasepattern-27" />
    <pattern
       y="0"
       x="0"
       height="6"
       width="6"
       patternUnits="userSpaceOnUse"
       id="EMFhbasepattern-09" />
    <pattern
       y="0"
       x="0"
       height="6"
       width="6"
       patternUnits="userSpaceOnUse"
       id="EMFhbasepattern-5" />
    <pattern
       y="0"
       x="0"
       height="6"
       width="6"
       patternUnits="userSpaceOnUse"
       id="EMFhbasepattern-018" />
  </defs>
  <sodipodi:namedview
     inkscape:document-rotation="0"
     inkscape:snap-global="true"
     inkscape:snap-nodes="false"
     inkscape:bbox-nodes="true"
     inkscape:snap-bbox="true"
     showguides="true"
     inkscape:snap-midpoints="true"
     inkscape:snap-smooth-nodes="true"
     inkscape:snap-intersection-paths="true"
     inkscape:object-paths="true"
     inkscape:showpageshadow="false"
     inkscape:pagecheckerboard="true"
     inkscape:window-maximized="1"
     inkscape:window-y="-8"
     inkscape:window-x="-8"
     inkscape:window-height="706"
     inkscape:window-width="1366"
     units="pt"
     showgrid="false"
     inkscape:current-layer="layer1"
     inkscape:document-units="pt"
     inkscape:cy="42.56527"
     inkscape:cx="42.682208"
     inkscape:zoom="4.2757863"
     inkscape:pageshadow="2"
     inkscape:pageopacity="0.0"
     borderopacity="1.0"
     bordercolor="#666666"
     pagecolor="#ffffff"
     id="base">
    <inkscape:grid
       id="grid1378"
       type="xygrid" />
    <sodipodi:guide
       inkscape:locked="false"
       id="guide1380"
       orientation="78.000048,0"
       position="0.97013831,21.607643" />
    <sodipodi:guide
       inkscape:locked="false"
       id="guide1382"
       orientation="0,78.000005"
       position="0.97013831,0.97013129" />
    <sodipodi:guide
       inkscape:locked="false"
       id="guide1384"
       orientation="-78.000048,0"
       position="21.607639,0.97013129" />
    <sodipodi:guide
       inkscape:locked="false"
       id="guide1386"
       orientation="0,-78.000005"
       position="21.607639,21.607643" />
  </sodipodi:namedview>
  <metadata
     id="metadata828">
    <rdf:RDF>
      <cc:Work
         rdf:about="">
        <dc:format>image/svg+xml</dc:format>
        <dc:type
           rdf:resource="http://purl.org/dc/dcmitype/StillImage" />
        <dc:title></dc:title>
      </cc:Work>
    </rdf:RDF>
  </metadata>
  <g
     transform="translate(0,-274.42223)"
     id="layer1"
     inkscape:groupmode="layer"
     inkscape:label="Icon">
    <g
       style="stroke-width:0.794923"
       id="g124265"
       transform="matrix(1.257983,0,0,1.257983,-37.734264,-192.37578)">
      <path
         style="color:#000000;fill:#3a4b58;stroke-width:0.794923;stroke-linecap:round;stroke-linejoin:round;stroke-miterlimit:1.5"
         d="m 42.841797,375.52539 a 0.26460996,0.26460996 0 0 0 -0.25586,0.33203 l 0.859375,3.20703 a 0.26460996,0.26460996 0 0 0 0.25586,0.19727 h 2.21289 a 0.26460996,0.26460996 0 0 0 0.265625,-0.26563 v -3.20703 a 0.26460996,0.26460996 0 0 0 -0.265625,-0.26367 h -0.71875 z"
         id="path111311" />
      <path
         style="color:#000000;clip-rule:evenodd;fill:#eb305d;fill-rule:evenodd;stroke-width:0.794923;stroke-linecap:round;stroke-linejoin:round;stroke-miterlimit:1.5"
         d="m 40.710937,371.83984 c -0.321482,0 -0.58789,0.26836 -0.58789,0.58985 v 0.26172 l -2.853516,-0.002 a 0.26460996,0.26460996 0 0 0 -0.208984,0.10157 l -1.134766,1.46093 a 0.26460996,0.26460996 0 0 0 -0.05664,0.16211 v 4.78516 a 0.26460996,0.26460996 0 0 0 0.265625,0.26367 h 9.058593 a 0.26460996,0.26460996 0 0 0 0.265625,-0.26367 c 0,0 0.0032,-5.0789 0.01172,-6.76953 0,-0.32149 -0.266408,-0.58985 -0.587891,-0.58985 z"
         id="path111319" />
      <path
         id="path52435"
         style="clip-rule:evenodd;fill:#b31e48;fill-opacity:1;fill-rule:evenodd;stroke-width:3.00444;stroke-linecap:round;stroke-linejoin:round;stroke-miterlimit:1.5"
         d="m 147.43945,353.04492 c -1.99788,0 -3.39362,1.43897 -4.03125,3.21875 l -7.77539,-0.006 a 1.0001006,1.0001006 0 0 0 -0.0644,0.33008 v 18.08594 a 1.0001006,1.0001006 0 0 0 1.00391,0.99609 h 31.20507 c 0.006,-6.69354 0.0143,-13.86954 0.0352,-17.99609 a 2.3850356,2.3850356 0 0 0 0,-0.002 2.3850356,2.3850356 0 0 0 0,-0.002 2.3850356,2.3850356 0 0 0 0,-0.002 2.3850356,2.3850356 0 0 0 0,-0.002 2.3850356,2.3850356 0 0 0 0,-0.002 2.3850356,2.3850356 0 0 0 0,-0.002 2.3850356,2.3850356 0 0 0 0,-0.002 2.3850356,2.3850356 0 0 0 0,-0.002 c 0,-2.53254 -2.06522,-4.61328 -4.60742,-4.61328 z"
         transform="matrix(0.26458334,0,0,0.26458334,0,280.06666)" />
      <path
         style="color:#000000;clip-rule:evenodd;fill:#2bb3cd;fill-rule:evenodd;stroke-width:0.794923;stroke-linecap:round;stroke-linejoin:round;stroke-miterlimit:1.5"
         d="m 39.009766,374.10742 c -0.321483,0 -0.587891,0.26836 -0.587891,0.58985 v 0.26171 l -2.853516,-0.002 a 0.26460996,0.26460996 0 0 0 -0.208984,0.10156 l -1.134766,1.46094 a 0.26460996,0.26460996 0 0 0 -0.05469,0.16211 v 5.375 a 0.26460996,0.26460996 0 0 0 0.263672,0.26563 h 9.058593 a 0.26460996,0.26460996 0 0 0 0.265625,-0.26368 c 0.002,-1.69323 0.0032,-5.67033 0.01172,-7.36132 0,-0.32149 -0.266408,-0.58985 -0.58789,-0.58985 z"
         id="path111327" />
      <path
         id="path38305"
         style="clip-rule:evenodd;fill:#1e65a4;fill-opacity:1;fill-rule:evenodd;stroke-width:3.00444;stroke-linecap:round;stroke-linejoin:round;stroke-miterlimit:1.5"
         d="m 140.47656,361.14258 c -2.06468,0 -3.5099,1.42946 -4.30273,3.21094 l -6.66602,-0.004 -0.15429,0.19727 a 1.0001006,1.0001006 0 0 0 -0.20704,0.61132 v 20.31641 a 1.0001006,1.0001006 0 0 0 0.9961,1.00391 h 31.13281 c 0.004,-3.34989 0.0211,-14.71091 0.0488,-20.23438 a 2.8541593,2.8541593 0 0 0 0,-0.002 2.8541593,2.8541593 0 0 0 0,-0.002 2.8541593,2.8541593 0 0 0 0,-0.002 2.8541593,2.8541593 0 0 0 0,-0.002 c 2e-5,-0.008 1e-5,-0.008 0,-0.0156 v -0.006 c -0.004,-2.79987 -2.29674,-5.07226 -5.08594,-5.07226 z"
         transform="matrix(0.26458334,0,0,0.26458334,0,280.06666)" />
      <path
         style="color:#000000;clip-rule:evenodd;fill:#fed883;fill-rule:evenodd;stroke-width:0.794923;stroke-linecap:round;stroke-linejoin:round;stroke-miterlimit:1.5"
         d="m 37.167969,376.375 c -0.321483,0 -0.589844,0.2664 -0.589844,0.58789 v 0.26172 l -2.853516,-0.002 a 0.26460996,0.26460996 0 0 0 -0.208984,0.10351 l -1.132813,1.46094 a 0.26460996,0.26460996 0 0 0 -0.05664,0.16211 v 4.00195 a 0.26460996,0.26460996 0 0 0 0.265625,0.26367 h 9.058594 a 0.26460996,0.26460996 0 0 0 0.263671,-0.26367 c 0,0 0.0052,-4.29529 0.01367,-5.98633 a 0.26460996,0.26460996 0 0 0 0,-0.002 c 0,-0.32149 -0.268361,-0.58789 -0.589843,-0.58789 z"
         id="path111335" />
      <path
         style="color:#000000;clip-rule:evenodd;fill:#143441;fill-rule:evenodd;stroke-width:0.794923;stroke-linecap:round;stroke-linejoin:round;stroke-miterlimit:1.5"
         d="m 46.011719,375.54297 a 0.26460996,0.26460996 0 0 0 -0.289063,0.0644 l -4.820312,5.10352 a 0.26460996,0.26460996 0 0 0 -0.07227,0.18164 v 7.08594 a 0.26460996,0.26460996 0 0 0 0.457031,0.18359 l 4.81836,-5.05469 a 0.26460996,0.26460996 0 0 0 0.07422,-0.18359 v -7.13477 a 0.26460996,0.26460996 0 0 0 -0.167968,-0.24609 z"
         id="path111357" />
      <path
         style="color:#000000;fill:#3a4b58;stroke-width:0.794923;stroke-linecap:round;stroke-linejoin:round;stroke-miterlimit:1.5"
         d="m 32.023437,380.62695 a 0.26460996,0.26460996 0 0 0 -0.263671,0.26563 v 7.08594 a 0.26460996,0.26460996 0 0 0 0.263671,0.26562 h 9.072266 a 0.26460996,0.26460996 0 0 0 0.263672,-0.26562 v -7.08594 a 0.26460996,0.26460996 0 0 0 -0.263672,-0.26563 z"
         id="path111343" />
      <path
         style="color:#000000;clip-rule:evenodd;fill:#f5f6e8;fill-rule:evenodd;stroke-width:0.794923;stroke-linecap:round;stroke-linejoin:round;stroke-miterlimit:1.5"
         d="m 38.714844,383.75 a 0.2645835,0.2645835 0 0 0 -0.160157,0.12305 l -0.396484,0.68554 h -2.957031 l -0.339844,-0.67187 a 0.2645835,0.2645835 0 0 0 -0.355469,-0.11719 0.2645835,0.2645835 0 0 0 -0.117187,0.35547 l 0.414062,0.81836 a 0.26460996,0.26460996 0 0 0 0.236328,0.14453 h 3.271485 a 0.26460996,0.26460996 0 0 0 0.230469,-0.13281 l 0.470703,-0.81641 a 0.2645835,0.2645835 0 0 0 -0.0957,-0.36133 0.2645835,0.2645835 0 0 0 -0.201172,-0.0273 z"
         id="path122950" />
      <path
         style="color:#000000;fill:#f5f6e8;stroke-width:0.794923;stroke-linecap:round;stroke-linejoin:round;stroke-miterlimit:1.5"
         d="m 43.464844,380.08008 a 0.26460996,0.26460996 0 0 0 -0.289063,0.0586 l -1.132812,1.13281 a 0.26460996,0.26460996 0 0 0 -0.07813,0.1875 v 1.41797 a 0.26460996,0.26460996 0 0 0 0.451172,0.18555 l 1.134765,-1.13281 a 0.26460996,0.26460996 0 0 0 0.07813,-0.1875 v -1.41797 a 0.26460996,0.26460996 0 0 0 -0.164062,-0.24414 z"
         id="path111365" />
      <path
         id="path68237"
         style="color:#000000;clip-rule:evenodd;fill:#0e243a;fill-opacity:1;fill-rule:evenodd;stroke-width:0.794923;stroke-linecap:round;stroke-linejoin:round;stroke-miterlimit:1.5"
         d="m 45.935218,375.52543 a 0.26460996,0.26460996 0 0 0 -0.212389,0.0822 l -4.820378,5.10305 a 0.26460996,0.26460996 0 0 0 -0.07235,0.1819 v 0.92191 l 4.363559,-4.61936 a 0.26460996,0.26460996 0 0 1 0.288869,-0.0646 0.26460996,0.26460996 0 0 1 0.16795,0.24598 v 6.2084 l 0.455268,-0.47749 a 0.26460996,0.26460996 0 0 0 0.0739,-0.18345 v -7.13496 a 0.26460996,0.26460996 0 0 0 -0.167949,-0.24598 0.26460996,0.26460996 0 0 0 -0.07648,-0.0176 z" />
      <path
         id="path74084"
         style="fill:#0e243a;fill-opacity:1;stroke:none;stroke-width:1.58985;stroke-linecap:round;stroke-linejoin:round;stroke-miterlimit:1.5"
         d="m 157.41016,377.40234 -2.81836,2.98438 a 1.0001006,1.0001006 0 0 0 -0.27344,0.6875 v 26.78125 a 1.0001006,1.0001006 0 0 0 1.72656,0.69336 l 2.38672,-2.50391 v -27.1289 z"
         transform="matrix(0.26458334,0,0,0.26458334,0,280.06666)" />
      <path
         id="path64672"
         style="color:#000000;fill:#143441;fill-opacity:1;stroke-width:0.794923;stroke-linecap:round;stroke-linejoin:round;stroke-miterlimit:1.5"
         d="m 32.023672,380.62699 c -0.146323,3e-4 -0.264626,0.1193 -0.264067,0.26562 v 0.79272 c 7.950761,0 8.541597,1.52946 8.541597,6.55877 h 0.794269 c 0.146322,-3e-4 0.264623,-0.1193 0.264064,-0.26562 v -7.08587 c 5.59e-4,-0.14632 -0.117742,-0.26532 -0.264064,-0.26562 z"
         sodipodi:nodetypes="ccccccccc" />
      <path
         id="path74169"
         style="color:#000000;fill:#cbd1c0;fill-opacity:1;stroke-width:0.794923;stroke-linecap:round;stroke-linejoin:round;stroke-miterlimit:1.5"
         d="m 43.349808,380.05649 a 0.26460996,0.26460996 0 0 0 -0.174149,0.078 l -1.132747,1.13274 a 0.26460996,0.26460996 0 0 0 -0.07803,0.18759 v 0.41961 l 0.681612,-0.68161 a 0.26460996,0.26460996 0 0 1 0.288872,-0.0584 0.26460996,0.26460996 0 0 1 0.16433,0.24391 v 0.99735 l 0.451136,-0.4501 a 0.26460996,0.26460996 0 0 0 0.07803,-0.18758 v -1.41801 a 0.26460996,0.26460996 0 0 0 -0.16433,-0.24391 0.26460996,0.26460996 0 0 0 -0.114723,-0.0196 z" />
    </g>
  </g>
</svg>
