<?xml version="1.0" encoding="UTF-8" standalone="no"?>
<svg
   xmlns:dc="http://purl.org/dc/elements/1.1/"
   xmlns:cc="http://creativecommons.org/ns#"
   xmlns:rdf="http://www.w3.org/1999/02/22-rdf-syntax-ns#"
   xmlns:svg="http://www.w3.org/2000/svg"
   xmlns="http://www.w3.org/2000/svg"
   xmlns:sodipodi="http://sodipodi.sourceforge.net/DTD/sodipodi-0.dtd"
   xmlns:inkscape="http://www.inkscape.org/namespaces/inkscape"
   sodipodi:docname="Setting.svg"
   inkscape:version="1.0 (4035a4fb49, 2020-05-01)"
   id="svg831"
   version="1.1"
   viewBox="0 0 22.577778 22.577778"
   height="64pt"
   width="64pt"
   inkscape:export-filename="D:\Project ++\Flat\png\Team.png"
   inkscape:export-xdpi="576"
   inkscape:export-ydpi="576">
  <defs
     id="defs825">
    <pattern
       y="0"
       x="0"
       height="6"
       width="6"
       patternUnits="userSpaceOnUse"
       id="EMFhbasepattern" />
    <pattern
       y="0"
       x="0"
       height="6"
       width="6"
       patternUnits="userSpaceOnUse"
       id="EMFhbasepattern-9" />
    <pattern
       y="0"
       x="0"
       height="6"
       width="6"
       patternUnits="userSpaceOnUse"
       id="EMFhbasepattern-0" />
    <pattern
       y="0"
       x="0"
       height="6"
       width="6"
       patternUnits="userSpaceOnUse"
       id="EMFhbasepattern-7" />
    <pattern
       y="0"
       x="0"
       height="6"
       width="6"
       patternUnits="userSpaceOnUse"
       id="EMFhbasepattern-2" />
    <pattern
       y="0"
       x="0"
       height="6"
       width="6"
       patternUnits="userSpaceOnUse"
       id="EMFhbasepattern-98" />
    <pattern
       y="0"
       x="0"
       height="6"
       width="6"
       patternUnits="userSpaceOnUse"
       id="EMFhbasepattern-6" />
    <pattern
       y="0"
       x="0"
       height="6"
       width="6"
       patternUnits="userSpaceOnUse"
       id="EMFhbasepattern-01" />
    <pattern
       y="0"
       x="0"
       height="6"
       width="6"
       patternUnits="userSpaceOnUse"
       id="EMFhbasepattern-07" />
    <pattern
       y="0"
       x="0"
       height="6"
       width="6"
       patternUnits="userSpaceOnUse"
       id="EMFhbasepattern-8" />
    <pattern
       y="0"
       x="0"
       height="6"
       width="6"
       patternUnits="userSpaceOnUse"
       id="EMFhbasepattern-4" />
    <pattern
       y="0"
       x="0"
       height="6"
       width="6"
       patternUnits="userSpaceOnUse"
       id="EMFhbasepattern-40" />
    <pattern
       y="0"
       x="0"
       height="6"
       width="6"
       patternUnits="userSpaceOnUse"
       id="EMFhbasepattern-08" />
    <pattern
       y="0"
       x="0"
       height="6"
       width="6"
       patternUnits="userSpaceOnUse"
       id="EMFhbasepattern-04" />
    <pattern
       y="0"
       x="0"
       height="6"
       width="6"
       patternUnits="userSpaceOnUse"
       id="EMFhbasepattern-014" />
    <pattern
       y="0"
       x="0"
       height="6"
       width="6"
       patternUnits="userSpaceOnUse"
       id="EMFhbasepattern-27" />
    <pattern
       y="0"
       x="0"
       height="6"
       width="6"
       patternUnits="userSpaceOnUse"
       id="EMFhbasepattern-09" />
    <pattern
       y="0"
       x="0"
       height="6"
       width="6"
       patternUnits="userSpaceOnUse"
       id="EMFhbasepattern-5" />
    <pattern
       y="0"
       x="0"
       height="6"
       width="6"
       patternUnits="userSpaceOnUse"
       id="EMFhbasepattern-018" />
  </defs>
  <sodipodi:namedview
     inkscape:document-rotation="0"
     inkscape:snap-global="true"
     inkscape:snap-nodes="false"
     inkscape:bbox-nodes="true"
     inkscape:snap-bbox="true"
     showguides="true"
     inkscape:snap-midpoints="true"
     inkscape:snap-smooth-nodes="true"
     inkscape:snap-intersection-paths="true"
     inkscape:object-paths="true"
     inkscape:showpageshadow="false"
     inkscape:pagecheckerboard="true"
     inkscape:window-maximized="1"
     inkscape:window-y="-8"
     inkscape:window-x="-8"
     inkscape:window-height="706"
     inkscape:window-width="1366"
     units="pt"
     showgrid="false"
     inkscape:current-layer="layer1"
     inkscape:document-units="pt"
     inkscape:cy="42.56527"
     inkscape:cx="42.682208"
     inkscape:zoom="4.2757863"
     inkscape:pageshadow="2"
     inkscape:pageopacity="0.0"
     borderopacity="1.0"
     bordercolor="#666666"
     pagecolor="#ffffff"
     id="base">
    <inkscape:grid
       id="grid1378"
       type="xygrid" />
    <sodipodi:guide
       inkscape:locked="false"
       id="guide1380"
       orientation="78.000048,0"
       position="0.97013831,21.607643" />
    <sodipodi:guide
       inkscape:locked="false"
       id="guide1382"
       orientation="0,78.000005"
       position="0.97013831,0.97013129" />
    <sodipodi:guide
       inkscape:locked="false"
       id="guide1384"
       orientation="-78.000048,0"
       position="21.607639,0.97013129" />
    <sodipodi:guide
       inkscape:locked="false"
       id="guide1386"
       orientation="0,-78.000005"
       position="21.607639,21.607643" />
  </sodipodi:namedview>
  <metadata
     id="metadata828">
    <rdf:RDF>
      <cc:Work
         rdf:about="">
        <dc:format>image/svg+xml</dc:format>
        <dc:type
           rdf:resource="http://purl.org/dc/dcmitype/StillImage" />
        <dc:title></dc:title>
      </cc:Work>
    </rdf:RDF>
  </metadata>
  <g
     transform="translate(0,-274.42223)"
     id="layer1"
     inkscape:groupmode="layer"
     inkscape:label="Icon">
    <g
       style="stroke-width:0.794898"
       id="g36206"
       transform="matrix(1.2580231,0,0,1.2580231,77.382815,-192.39074)">
      <path
         style="color:#000000;clip-rule:evenodd;fill:#aabfd0;fill-opacity:1;fill-rule:evenodd;stroke-width:0.794898;stroke-linecap:round;stroke-linejoin:round;stroke-miterlimit:1.5"
         d="m -53.117187,371.83984 c -0.73489,0 -1.33175,0.60047 -1.337891,1.33399 -0.50114,0.13742 -0.979203,0.32824 -1.429688,0.5664 -0.07053,-0.0705 -0.141966,-0.14195 -0.310546,-0.31054 -0.522241,-0.52223 -1.377922,-0.52214 -1.900391,0 -0.240738,0.241 -0.507055,0.50732 -0.748047,0.74804 -0.522145,0.52247 -0.522239,1.3762 0,1.89844 0.12997,0.12997 0.171981,0.17198 0.234375,0.23438 -0.341944,0.55814 -0.609006,1.16473 -0.787109,1.81054 h -0.002 c -0.738672,0 -1.341797,0.60509 -1.341797,1.34375 v 1.05664 c 0,0.73867 0.603125,1.34375 1.341797,1.34375 h 0.002 c 0.178088,0.64636 0.444924,1.25199 0.787109,1.81055 -0.06239,0.0624 -0.104405,0.10441 -0.234375,0.23438 -0.522239,0.52224 -0.522145,1.37792 0,1.90039 0.240992,0.24072 0.507309,0.50704 0.748047,0.74804 0.522469,0.52214 1.37815,0.52224 1.900391,0 0.172821,-0.17283 0.250158,-0.25015 0.318359,-0.31836 0.584048,0.28738 1.330292,0.51316 1.898437,0.65039 a 0.26460996,0.26460996 0 0 0 0.06055,0.008 h 3.3125 a 0.26460996,0.26460996 0 0 0 0.0625,-0.008 c 0.58384,-0.14102 0.924927,-0.3777 1.359375,-0.63281 0.07306,0.0731 0.137503,0.1375 0.300782,0.30078 0.52224,0.52223 1.377921,0.52214 1.90039,0 0.240738,-0.241 0.507055,-0.50732 0.748047,-0.74804 0.522145,-0.52247 0.522239,-1.37815 0,-1.90039 -0.12997,-0.12997 -0.171981,-0.17198 -0.234375,-0.23438 0.342185,-0.55856 0.609021,-1.16419 0.787109,-1.81055 h 0.002 c 0.738671,0 1.341796,-0.60508 1.341796,-1.34375 v -1.05664 c 0,-0.73866 -0.603125,-1.34375 -1.341796,-1.34375 h -0.002 c -0.178103,-0.64581 -0.445165,-1.2524 -0.787109,-1.81054 0.06239,-0.0624 0.104405,-0.10441 0.234375,-0.23438 0.522239,-0.52224 0.522145,-1.37597 0,-1.89844 -0.240992,-0.24072 -0.507309,-0.50704 -0.748047,-0.74804 -0.522469,-0.52214 -1.37815,-0.52223 -1.90039,0 -0.16858,0.16859 -0.240016,0.24001 -0.310547,0.31054 -0.450485,-0.23816 -0.928548,-0.42898 -1.429688,-0.5664 -0.0061,-0.73352 -0.603001,-1.33399 -1.33789,-1.33399 z"
         id="path111049" />
      <path
         id="path136173"
         style="color:#000000;clip-rule:evenodd;fill:#87a4ba;fill-opacity:1;fill-rule:evenodd;stroke-width:0.794898;stroke-linecap:round;stroke-linejoin:round;stroke-miterlimit:1.5"
         d="m -53.117171,371.83987 c -0.734891,0 -1.331762,0.60025 -1.337903,1.33377 -0.501142,0.13742 -0.979403,0.32821 -1.429888,0.56638 -0.07053,-0.0705 -0.141996,-0.14199 -0.310576,-0.31058 -0.52224,-0.52223 -1.377672,-0.52214 -1.900142,0 -0.240736,0.241 -0.507283,0.50755 -0.748273,0.74827 -0.522148,0.52247 -0.52224,1.37636 0,1.89859 0.129968,0.12998 0.172217,0.1717 0.234611,0.2341 -0.0071,0.0116 -0.01365,0.0235 -0.02066,0.0351 a 8.7878113,8.7878113 0 0 1 0.750342,-0.0351 8.7878113,8.7878113 0 0 1 8.787578,8.78809 8.7878113,8.7878113 0 0 1 -0.08217,1.16841 c 0.07039,0.0704 0.133226,0.13322 0.291455,0.29145 0.52224,0.52223 1.377675,0.52214 1.900142,0 0.240739,-0.24099 0.507283,-0.50703 0.748276,-0.74775 0.522145,-0.52247 0.52224,-1.37842 0,-1.90066 -0.129971,-0.12997 -0.172217,-0.1717 -0.234611,-0.2341 0.342186,-0.55856 0.60946,-1.16438 0.787548,-1.81074 h 0.0021 c 0.738669,0 1.341519,-0.60492 1.341519,-1.34359 v -1.05678 c 0,-0.73866 -0.60285,-1.34359 -1.341519,-1.34359 h -0.0021 c -0.178102,-0.64581 -0.445603,-1.2526 -0.787548,-1.81074 0.06239,-0.0624 0.10464,-0.10412 0.234611,-0.2341 0.52224,-0.52223 0.522145,-1.37612 0,-1.89859 -0.240993,-0.24072 -0.507537,-0.50727 -0.748276,-0.74827 -0.522467,-0.52214 -1.377902,-0.52223 -1.900142,0 -0.168579,0.16859 -0.240043,0.24005 -0.310573,0.31058 -0.450485,-0.23817 -0.928749,-0.42896 -1.429888,-0.56638 -0.0061,-0.73352 -0.603015,-1.33377 -1.337903,-1.33377 z" />
      <path
         style="color:#000000;clip-rule:evenodd;fill:#526e82;fill-rule:evenodd;stroke-width:0.794898;stroke-linecap:round;stroke-linejoin:round;stroke-miterlimit:1.5"
         d="m -52.539062,374.27539 c -3.063798,0 -5.556641,2.49286 -5.556641,5.55664 0,3.06378 2.492843,5.55664 5.556641,5.55664 3.063796,0 5.55664,-2.49286 5.55664,-5.55664 0,-3.06378 -2.492844,-5.55664 -5.55664,-5.55664 z"
         id="path111057" />
      <path
         style="color:#000000;clip-rule:evenodd;fill:#bdc3b2;fill-opacity:1;fill-rule:evenodd;stroke-width:0.794898;stroke-linecap:round;stroke-linejoin:round;stroke-miterlimit:1.5"
         d="m -50.494141,378.08594 c -0.153441,0.10158 -0.232905,0.28795 -0.197265,0.46875 l -0.002,-0.008 c 0.09798,0.59606 -0.08352,1.20362 -0.492188,1.64844 -0.263285,0.28706 -0.590819,0.57949 -0.875,0.66602 a 0.26460996,0.26460996 0 0 0 0.0059,0.50781 c 0.97528,0.27681 1.987157,0.28707 2.982421,-0.18945 a 0.26460996,0.26460996 0 0 0 0.142579,-0.17383 c 0.05325,-0.21508 0.08203,-0.43923 0.08203,-0.66992 0,-0.91571 -0.444586,-1.73241 -1.128906,-2.24024 a 0.26460996,0.26460996 0 0 0 -0.0098,-0.006 c -0.152015,-0.10384 -0.353714,-0.10547 -0.507813,-0.004 z"
         id="path111065" />
      <path
         style="color:#000000;clip-rule:evenodd;fill:#f5f6e8;fill-rule:evenodd;stroke-width:0.794898;stroke-linecap:round;stroke-linejoin:round;stroke-miterlimit:1.5"
         d="m -48.865761,380.65153 c 0,0 -1.348472,0.10518 -2.476023,0.1925 -1.16475,0.091 -1.579533,-0.17781 -2.083984,-0.71289 -0.476527,-0.50572 -0.698433,-1.20029 -0.603516,-1.88867 7.08e-4,-0.003 0.0014,-0.005 0.002,-0.008 0.02776,-0.26037 0.05131,-0.48955 0.07031,-0.66015 0.0185,-0.16613 0.03413,-0.28717 0.03516,-0.29492 0.04227,-0.21746 -0.05143,-0.44083 -0.236328,-0.5625 l -6.1e-5,-1e-4 c -0.184893,-0.12148 -0.428372,-0.11953 -0.611328,0.006 l -0.0078,0.006 c -0.97806,0.72561 -1.613281,1.89204 -1.613281,3.20117 0,1.56675 0.943362,2.88175 2.263672,3.53125 v 2.93164 c 0,0.30406 0.06193,0.74804 0.333984,1.14258 0.272052,0.39453 0.773171,0.70898 1.517578,0.70898 0.744408,0 1.24748,-0.31445 1.519532,-0.70898 0.272051,-0.39454 0.333984,-0.83852 0.333984,-1.14258 v -3.08203 c 0.731452,-0.51594 1.244061,-1.40997 1.490234,-2.29688 z"
         id="path111073"
         sodipodi:nodetypes="cccccscccccscsssssccc" />
      <path
         id="path114283"
         style="color:#000000;clip-rule:evenodd;fill:#3a4d5c;fill-opacity:1;fill-rule:evenodd;stroke-width:0.794898;stroke-linecap:round;stroke-linejoin:round;stroke-miterlimit:1.5"
         d="m -52.538672,374.27538 c -1.801146,0 -3.404897,0.86159 -4.420918,2.19418 0.934183,-0.71226 2.099932,-1.13585 3.362585,-1.13585 3.063798,0 5.55625,2.49299 5.55625,5.55677 0,1.26265 -0.423588,2.42789 -1.135846,3.36207 1.33259,-1.01602 2.194179,-2.61926 2.194179,-4.4204 0,-3.06378 -2.492452,-5.55677 -5.55625,-5.55677 z" />
      <path
         style="color:#000000;clip-rule:evenodd;fill:#3a4d5c;fill-opacity:1;fill-rule:evenodd;stroke-width:0.794898;stroke-linecap:round;stroke-linejoin:round;stroke-miterlimit:1.5"
         d="m -52.275391,382.1582 a 0.2645835,0.2645835 0 0 0 -0.263671,0.26563 v 0.26367 a 0.2645835,0.2645835 0 0 0 0.263671,0.26562 0.2645835,0.2645835 0 0 0 0.265625,-0.26562 v -0.26367 a 0.2645835,0.2645835 0 0 0 -0.265625,-0.26563 z"
         id="path78375" />
      <path
         style="color:#000000;clip-rule:evenodd;fill:#3a4d5c;fill-opacity:1;fill-rule:evenodd;stroke-width:0.794898;stroke-linecap:round;stroke-linejoin:round;stroke-miterlimit:1.5"
         d="m -51.480469,382.1582 a 0.2645835,0.2645835 0 0 0 -0.265625,0.26563 v 0.26367 a 0.2645835,0.2645835 0 0 0 0.265625,0.26562 0.2645835,0.2645835 0 0 0 0.263672,-0.26562 v -0.26367 a 0.2645835,0.2645835 0 0 0 -0.263672,-0.26563 z"
         id="path80993" />
      <path
         style="color:#000000;clip-rule:evenodd;fill:#3a4d5c;fill-opacity:1;fill-rule:evenodd;stroke-width:0.794898;stroke-linecap:round;stroke-linejoin:round;stroke-miterlimit:1.5"
         d="m -53.068359,382.1582 a 0.2645835,0.2645835 0 0 0 -0.263672,0.26563 v 0.26367 a 0.2645835,0.2645835 0 0 0 0.263672,0.26562 0.2645835,0.2645835 0 0 0 0.265625,-0.26562 v -0.26367 a 0.2645835,0.2645835 0 0 0 -0.265625,-0.26563 z"
         id="path80995" />
      <path
         style="color:#000000;fill:#3a4d5c;fill-opacity:1;stroke-width:0.794898;stroke-linecap:round;stroke-linejoin:round;stroke-miterlimit:1.5"
         d="m -52.275391,385.59766 c -0.435243,0 -0.792971,0.35967 -0.792968,0.79492 5e-6,0.43524 0.35773,0.79297 0.792968,0.79297 0.435238,0 0.794917,-0.35773 0.794922,-0.79297 3e-6,-0.43525 -0.359678,-0.79492 -0.794922,-0.79492 z"
         id="path111009" />
      <path
         id="path200949"
         style="fill:#bdc3b2;fill-opacity:1;stroke:none;stroke-width:1.5898;stroke-linecap:round;stroke-linejoin:round;stroke-miterlimit:1.5;stroke-opacity:1"
         d="m -192.37109,391.27728 c 0,0 -10e-4,5.21646 0,6.75397 2.2e-4,8.0265 -3.92358,8.7638 -8.76368,8.76367 -0.62591,-10e-4 -1.24991,-0.0691 -1.86132,-0.20312 1.07946,1.29233 2.87087,2.26953 5.41992,2.26953 2.81351,0 4.71396,-1.18855 5.74219,-2.67969 1.02822,-1.49117 1.26367,-3.16916 1.26367,-4.31836 v -11.64946 z"
         transform="matrix(0.26458334,0,0,0.26458334,0,280.06666)"
         sodipodi:nodetypes="ccccssscc" />
    </g>
  </g>
</svg>
