<?xml version="1.0" encoding="UTF-8" standalone="no"?>
<svg
   xmlns:dc="http://purl.org/dc/elements/1.1/"
   xmlns:cc="http://creativecommons.org/ns#"
   xmlns:rdf="http://www.w3.org/1999/02/22-rdf-syntax-ns#"
   xmlns:svg="http://www.w3.org/2000/svg"
   xmlns="http://www.w3.org/2000/svg"
   xmlns:sodipodi="http://sodipodi.sourceforge.net/DTD/sodipodi-0.dtd"
   xmlns:inkscape="http://www.inkscape.org/namespaces/inkscape"
   sodipodi:docname="Team.svg"
   inkscape:version="1.0 (4035a4fb49, 2020-05-01)"
   id="svg831"
   version="1.1"
   viewBox="0 0 22.577778 22.577778"
   height="64pt"
   width="64pt"
   inkscape:export-filename="D:\Project ++\Flat\png\Androi Test.png"
   inkscape:export-xdpi="576"
   inkscape:export-ydpi="576">
  <defs
     id="defs825">
    <pattern
       y="0"
       x="0"
       height="6"
       width="6"
       patternUnits="userSpaceOnUse"
       id="EMFhbasepattern" />
    <pattern
       y="0"
       x="0"
       height="6"
       width="6"
       patternUnits="userSpaceOnUse"
       id="EMFhbasepattern-9" />
    <pattern
       y="0"
       x="0"
       height="6"
       width="6"
       patternUnits="userSpaceOnUse"
       id="EMFhbasepattern-0" />
    <pattern
       y="0"
       x="0"
       height="6"
       width="6"
       patternUnits="userSpaceOnUse"
       id="EMFhbasepattern-7" />
    <pattern
       y="0"
       x="0"
       height="6"
       width="6"
       patternUnits="userSpaceOnUse"
       id="EMFhbasepattern-2" />
    <pattern
       y="0"
       x="0"
       height="6"
       width="6"
       patternUnits="userSpaceOnUse"
       id="EMFhbasepattern-98" />
    <pattern
       y="0"
       x="0"
       height="6"
       width="6"
       patternUnits="userSpaceOnUse"
       id="EMFhbasepattern-6" />
    <pattern
       y="0"
       x="0"
       height="6"
       width="6"
       patternUnits="userSpaceOnUse"
       id="EMFhbasepattern-01" />
    <pattern
       y="0"
       x="0"
       height="6"
       width="6"
       patternUnits="userSpaceOnUse"
       id="EMFhbasepattern-07" />
    <pattern
       y="0"
       x="0"
       height="6"
       width="6"
       patternUnits="userSpaceOnUse"
       id="EMFhbasepattern-8" />
    <pattern
       y="0"
       x="0"
       height="6"
       width="6"
       patternUnits="userSpaceOnUse"
       id="EMFhbasepattern-4" />
    <pattern
       y="0"
       x="0"
       height="6"
       width="6"
       patternUnits="userSpaceOnUse"
       id="EMFhbasepattern-40" />
    <pattern
       y="0"
       x="0"
       height="6"
       width="6"
       patternUnits="userSpaceOnUse"
       id="EMFhbasepattern-08" />
    <pattern
       y="0"
       x="0"
       height="6"
       width="6"
       patternUnits="userSpaceOnUse"
       id="EMFhbasepattern-04" />
    <pattern
       y="0"
       x="0"
       height="6"
       width="6"
       patternUnits="userSpaceOnUse"
       id="EMFhbasepattern-014" />
    <pattern
       y="0"
       x="0"
       height="6"
       width="6"
       patternUnits="userSpaceOnUse"
       id="EMFhbasepattern-27" />
    <pattern
       y="0"
       x="0"
       height="6"
       width="6"
       patternUnits="userSpaceOnUse"
       id="EMFhbasepattern-09" />
    <pattern
       y="0"
       x="0"
       height="6"
       width="6"
       patternUnits="userSpaceOnUse"
       id="EMFhbasepattern-5" />
    <pattern
       y="0"
       x="0"
       height="6"
       width="6"
       patternUnits="userSpaceOnUse"
       id="EMFhbasepattern-018" />
  </defs>
  <sodipodi:namedview
     inkscape:document-rotation="0"
     inkscape:snap-global="true"
     inkscape:snap-nodes="false"
     inkscape:bbox-nodes="true"
     inkscape:snap-bbox="true"
     showguides="true"
     inkscape:snap-midpoints="true"
     inkscape:snap-smooth-nodes="true"
     inkscape:snap-intersection-paths="true"
     inkscape:object-paths="true"
     inkscape:showpageshadow="false"
     inkscape:pagecheckerboard="true"
     inkscape:window-maximized="1"
     inkscape:window-y="-8"
     inkscape:window-x="-8"
     inkscape:window-height="706"
     inkscape:window-width="1366"
     units="pt"
     showgrid="false"
     inkscape:current-layer="layer1"
     inkscape:document-units="pt"
     inkscape:cy="42.56527"
     inkscape:cx="42.682208"
     inkscape:zoom="4.2757863"
     inkscape:pageshadow="2"
     inkscape:pageopacity="0.0"
     borderopacity="1.0"
     bordercolor="#666666"
     pagecolor="#ffffff"
     id="base">
    <inkscape:grid
       id="grid1378"
       type="xygrid" />
    <sodipodi:guide
       inkscape:locked="false"
       id="guide1380"
       orientation="78.000048,0"
       position="0.97013831,21.607643" />
    <sodipodi:guide
       inkscape:locked="false"
       id="guide1382"
       orientation="0,78.000005"
       position="0.97013831,0.97013129" />
    <sodipodi:guide
       inkscape:locked="false"
       id="guide1384"
       orientation="-78.000048,0"
       position="21.607639,0.97013129" />
    <sodipodi:guide
       inkscape:locked="false"
       id="guide1386"
       orientation="0,-78.000005"
       position="21.607639,21.607643" />
  </sodipodi:namedview>
  <metadata
     id="metadata828">
    <rdf:RDF>
      <cc:Work
         rdf:about="">
        <dc:format>image/svg+xml</dc:format>
        <dc:type
           rdf:resource="http://purl.org/dc/dcmitype/StillImage" />
        <dc:title></dc:title>
      </cc:Work>
    </rdf:RDF>
  </metadata>
  <g
     transform="translate(0,-274.42223)"
     id="layer1"
     inkscape:groupmode="layer"
     inkscape:label="Icon">
    <g
       style="stroke-width:0.794815"
       id="g35228"
       transform="matrix(1.2581542,0,0,1.2581542,-114.49582,-154.06306)">
      <path
         style="color:#000000;clip-rule:evenodd;fill:#ea676c;fill-rule:evenodd;stroke-width:0.794815;stroke-linecap:round;stroke-linejoin:round;stroke-miterlimit:1.5"
         d="m 103.7181,348.92187 a 0.26460996,0.26460996 0 0 0 -0.0664,0.01 c -1.00458,0.25896 -1.70731,0.56402 -2.17188,1.03516 -0.46456,0.47113 -0.64843,1.09531 -0.64843,1.86718 v 0.65235 c 0,0.13929 0.0556,0.27439 0.15429,0.37304 0.0988,0.0988 0.23129,0.1543 0.3711,0.1543 h 6.29297 c 0.1398,0 0.27431,-0.0556 0.37304,-0.1543 0.0987,-0.0987 0.1543,-0.23375 0.1543,-0.37304 v -0.65235 c 0,-0.77187 -0.18387,-1.39605 -0.64844,-1.86718 -0.46456,-0.47114 -1.16729,-0.7762 -2.17187,-1.03516 a 0.26460996,0.26460996 0 0 0 -0.0664,-0.01 c -0.52441,10e-6 -1.04785,10e-6 -1.57226,0 z"
         id="path405811" />
      <path
         style="color:#000000;clip-rule:evenodd;fill:#3a4d5c;fill-rule:evenodd;stroke-width:0.794815;stroke-linecap:round;stroke-linejoin:round;stroke-miterlimit:1.5"
         d="m 104.03255,345.2168 c -0.36576,-0.0348 -0.85641,0.12548 -1.21484,0.68554 -0.62079,0.97026 -0.58458,1.88177 -0.63282,2.38477 a 0.26460996,0.26460996 0 0 0 0,0.002 c -0.0215,0.23806 0.12728,0.46398 0.35742,0.53321 a 0.26460996,0.26460996 0 0 0 0.002,0 c 0.35908,0.1045 0.84552,0.0808 1.24219,0.0566 h 1.42773 c 0.39671,0.0242 0.88324,0.0477 1.24219,-0.0566 a 0.26460996,0.26460996 0 0 0 0.002,0 c 0.23015,-0.0692 0.37881,-0.29517 0.35742,-0.53321 a 0.26460996,0.26460996 0 0 0 0,-0.002 c -0.0482,-0.50304 -0.0121,-1.41452 -0.63281,-2.38477 -0.35844,-0.56006 -0.84909,-0.72037 -1.21484,-0.68554 -0.27416,0.0261 -0.37713,0.11581 -0.4668,0.17187 -0.0895,-0.056 -0.19434,-0.14574 -0.46875,-0.17187 z"
         id="path405917" />
      <path
         style="color:#000000;clip-rule:evenodd;fill:#f8c09d;fill-rule:evenodd;stroke-width:0.794815;stroke-linecap:round;stroke-linejoin:round;stroke-miterlimit:1.5"
         d="m 103.55403,348.3125 -0.0996,0.9043 c -0.001,0.01 -0.002,0.0195 -0.002,0.0293 0,0.57723 0.47371,1.05078 1.05078,1.05078 0.57749,0 1.05274,-0.47328 1.05274,-1.05078 -1.2e-4,-0.01 -7.9e-4,-0.0196 -0.002,-0.0293 l -0.0976,-0.90235 c -0.63629,0.0819 -1.26594,0.0372 -1.90232,-0.002 z"
         id="path405925"
         sodipodi:nodetypes="cccscccc" />
      <path
         id="path435676"
         style="color:#000000;clip-rule:evenodd;fill:#ef937e;fill-opacity:1;fill-rule:evenodd;stroke-width:0.794815;stroke-linecap:round;stroke-linejoin:round;stroke-miterlimit:1.5"
         d="m 103.55389,348.31263 -0.0641,0.58652 c 0.0322,0.0453 0.0666,0.088 0.10335,0.12816 0.2365,0.25816 0.5654,0.39843 0.90796,0.39843 0.34256,0 0.67197,-0.14027 0.90847,-0.39843 0.0389,-0.0425 0.0752,-0.0877 0.10904,-0.13591 l -0.0625,-0.57671 c -0.63629,0.0819 -1.26583,0.0371 -1.90221,-0.002 z" />
      <path
         style="color:#000000;clip-rule:evenodd;fill:#f8c09d;fill-rule:evenodd;stroke-width:0.794815;stroke-linecap:round;stroke-linejoin:round;stroke-miterlimit:1.5"
         d="m 103.47786,346.57812 a 0.26460996,0.26460996 0 0 0 -0.16797,0.1504 c -0.0841,0.199 -0.1289,0.4289 -0.1289,0.68359 a 0.26460996,0.26460996 0 0 0 0,0.0176 c 0.0314,0.444 0.1756,0.81019 0.41211,1.06836 0.2365,0.25816 0.56564,0.39843 0.9082,0.39843 0.34256,0 0.6717,-0.14027 0.9082,-0.39843 0.2365,-0.25817 0.38073,-0.62436 0.41211,-1.06836 a 0.26460996,0.26460996 0 0 0 -0.26367,-0.28321 c -0.30684,-5.1e-4 -0.57628,-0.16452 -0.70508,-0.43164 a 0.26460996,0.26460996 0 0 0 -0.36914,-0.11328 c -0.44812,0.25872 -0.7832,0.01 -0.7832,0.01 a 0.26460996,0.26460996 0 0 0 -0.22266,-0.0332 z"
         id="path405933" />
      <path
         id="path405989"
         style="color:#000000;clip-rule:evenodd;fill:#1d2c39;fill-rule:evenodd;stroke-width:3.00403;stroke-linecap:round;stroke-linejoin:round;stroke-miterlimit:1.5"
         d="m 390.43359,251.81445 c 0.26964,-0.48466 0.8822,-0.65729 1.36524,-0.38476 0.4512,0.25047 0.95672,0.38454 1.47656,0.38476 0.9069,-6e-4 1.72623,-0.39572 2.28125,-1.02539 0.17443,-0.19968 0.42102,-0.32194 0.68555,-0.33984 h -10e-6 c 0.26516,-0.0162 0.52587,0.0737 0.72461,0.25 0.41318,0.36538 0.45251,0.9963 0.0879,1.41016 -0.10219,0.11592 -0.20986,0.22615 -0.32227,0.33203 0.60954,0.63914 1.36848,0.99149 2.2375,1.08789 0.81325,0.0235 0.9981,0.45141 0.9961,1.0039 -0.009,0.38626 -0.0575,0.75555 -0.12973,1.11466 -2.32135,0 -3.89666,-1.03054 -4.95978,-2.09366 -0.50563,0.16915 -1.04501,0.25988 -1.60112,0.26025 -0.85791,-3.7e-4 -1.70162,-0.21856 -2.45117,-0.63476 -0.0918,-0.0505 -0.67918,-0.34432 -0.67918,-0.34432 0.0436,-0.35619 0.15519,-0.69185 0.28855,-1.02092 z"
         transform="matrix(0.26458334,0,0,0.26458334,0,280.06666)"
         sodipodi:nodetypes="cccccccccsscccccc" />
      <path
         id="path65188"
         style="color:#000000;clip-rule:evenodd;fill:#ea4343;fill-rule:evenodd;stroke-width:0.794815;stroke-linecap:round;stroke-linejoin:round;stroke-miterlimit:1.5"
         d="m 107.53039,349.96834 c -0.0578,0.006 -0.1086,0.019 -0.15813,0.0336 h -0.002 c -0.002,2.6e-4 -0.5127,0.12758 -0.83199,0.62321 a 0.2645835,0.2645835 0 0 0 0.0801,0.36536 0.2645835,0.2645835 0 0 0 0.36536,-0.0786 c 0.2049,-0.31807 0.51779,-0.39843 0.51779,-0.39843 a 0.26460996,0.26460996 0 0 0 0.0114,-0.002 c 0.0147,-0.004 0.10857,-0.0118 0.0997,-0.0134 a 0.2645835,0.2645835 0 0 0 0.24598,-0.092 c -0.0886,-0.15791 -0.19679,-0.30421 -0.32815,-0.4377 z m -1.32033,1.46709 a 0.2645835,0.2645835 0 0 0 -0.26562,0.26355 v 1.31517 h 0.52969 v -1.31517 a 0.2645835,0.2645835 0 0 0 -0.26407,-0.26355 z" />
      <g
         style="stroke-width:0.794815"
         id="g450772">
        <path
           style="color:#000000;clip-rule:evenodd;fill:#6acce2;fill-rule:evenodd;stroke-width:0.794815;stroke-linecap:round;stroke-linejoin:round;stroke-miterlimit:1.5"
           d="m 94.658854,348.92187 a 0.26460996,0.26460996 0 0 0 -0.06445,0.01 c -1.004582,0.25896 -1.707309,0.56402 -2.171875,1.03516 -0.464565,0.47113 -0.648437,1.09531 -0.648437,1.86718 v 0.65235 c 0,0.13924 0.05368,0.27436 0.152344,0.37304 0.09874,0.0988 0.233244,0.1543 0.373046,0.1543 h 6.292969 c 0.139803,0 0.274305,-0.0555 0.373047,-0.1543 0.0987,-0.0987 0.154297,-0.2338 0.154297,-0.37304 v -0.65235 c 0,-0.77187 -0.183872,-1.39605 -0.648438,-1.86718 -0.464565,-0.47114 -1.167292,-0.7762 -2.171875,-1.03516 a 0.26460996,0.26460996 0 0 0 -0.06641,-0.01 c -0.524412,10e-6 -1.049806,10e-6 -1.574218,0 z"
           id="path405819" />
        <path
           id="path443647"
           style="color:#000000;clip-rule:evenodd;fill:#28a7bd;fill-opacity:1;fill-rule:evenodd;stroke-width:3.00403;stroke-linecap:round;stroke-linejoin:round;stroke-miterlimit:1.5"
           d="m 371.74219,263.7793 c -2.89426,0.92164 -5.26234,2.0989 -7.0918,3.95312 -2.1125,2.14108 -3.04769,4.98272 -3.21289,7.97461 h 11.19531 c 0.52839,0 1.03696,-0.21057 1.41016,-0.58398 0.37304,-0.37304 0.58398,-0.8839 0.58398,-1.41016 v -2.46484 c 0,-2.91731 -0.69533,-5.27795 -2.45117,-7.0586 -0.13876,-0.14073 -0.28347,-0.27704 -0.43359,-0.41015 z"
           transform="matrix(0.26458334,0,0,0.26458334,0,280.06666)" />
        <path
           style="color:#000000;clip-rule:evenodd;fill:#f8c09d;fill-rule:evenodd;stroke-width:0.794815;stroke-linecap:round;stroke-linejoin:round;stroke-miterlimit:1.5"
           d="m 94.756511,348.07227 a 0.26460996,0.26460996 0 0 0 -0.261719,0.23632 l -0.09766,0.90821 a 0.26460996,0.26460996 0 0 0 -0.002,0.0293 c 0,0.5775 0.473291,1.05079 1.050781,1.05078 h 0.002 c 0.577069,0 1.048828,-0.47354 1.048828,-1.05078 a 0.26460996,0.26460996 0 0 0 0,-0.0293 l -0.09961,-0.91016 a 0.26460996,0.26460996 0 0 0 -0.263672,-0.23437 z"
           id="path405869" />
        <path
           id="path419217"
           style="color:#000000;clip-rule:evenodd;fill:#ef937e;fill-opacity:1;fill-rule:evenodd;stroke-width:0.794815;stroke-linecap:round;stroke-linejoin:round;stroke-miterlimit:1.5"
           d="m 94.756494,348.07233 a 0.26460996,0.26460996 0 0 0 -0.261486,0.23616 l -0.06459,0.60306 c 0.267867,0.28797 0.624202,0.47491 1.019577,0.47491 0.39198,0 0.747525,-0.18246 1.014407,-0.46509 l -0.06718,-0.61495 a 0.26460996,0.26460996 0 0 0 -0.263552,-0.23409 z" />
        <path
           style="color:#000000;clip-rule:evenodd;fill:#f8c09d;fill-rule:evenodd;stroke-width:0.794815;stroke-linecap:round;stroke-linejoin:round;stroke-miterlimit:1.5"
           d="m 95.471354,345.42578 a 0.26460996,0.26460996 0 0 0 -0.289062,0.0176 c 0,0 -0.291002,0.21637 -0.585938,0.44141 -0.147467,0.11251 -0.295213,0.22584 -0.410156,0.31835 -0.05747,0.0463 -0.107248,0.0864 -0.146484,0.1211 -0.01962,0.0174 -0.03691,0.0344 -0.05469,0.0527 -0.0089,0.009 -0.01726,0.0177 -0.0293,0.0332 -0.006,0.008 -0.01296,0.017 -0.02148,0.0312 -0.0043,0.007 -0.0086,0.0163 -0.01367,0.0273 -0.0051,0.011 -0.01549,0.0425 -0.01563,0.043 a 0.26460996,0.26460996 0 0 0 -0.0078,0.0312 c -0.01462,0.10103 -0.02344,0.18796 -0.02344,0.30664 0,0.53514 0.161104,1.02334 0.4375,1.39062 0.276397,0.36729 0.681372,0.61719 1.138672,0.61719 0.426993,0 0.811018,-0.21629 1.083984,-0.54297 0.272967,-0.32667 0.445667,-0.7656 0.484375,-1.2539 l -0.002,0.0254 0.09375,-0.52344 a 0.26460996,0.26460996 0 0 0 -0.130818,-0.27722 z"
           id="path405877" />
        <path
           style="color:#000000;clip-rule:evenodd;fill:#3a4d5c;fill-rule:evenodd;stroke-width:0.794815;stroke-linecap:round;stroke-linejoin:round;stroke-miterlimit:1.5"
           d="m 95.457683,344.62891 c -0.581792,-0.0486 -1.142745,0.20438 -1.523438,0.56054 -0.190346,0.17808 -0.337287,0.38541 -0.408203,0.61914 -0.07092,0.23374 -0.04952,0.50686 0.107422,0.72461 0.164179,0.22793 0.427398,0.32065 0.671875,0.33789 0.244477,0.0173 0.492076,-0.0276 0.71875,-0.0879 0.355837,-0.0946 0.537912,-0.19153 0.65625,-0.24804 0.153529,0.16817 0.421508,0.46374 0.753906,0.65234 0.183751,0.10426 0.413853,0.20034 0.654297,0.0762 0.120222,-0.0621 0.207274,-0.17757 0.253906,-0.30273 0.04663,-0.12517 0.06445,-0.26526 0.06445,-0.4336 0,-0.71528 -0.203445,-1.20983 -0.578125,-1.49804 -0.374679,-0.28822 -0.853276,-0.35723 -1.371093,-0.40039 z"
           id="path405885" />
        <path
           style="color:#000000;clip-rule:evenodd;fill:#1d2c39;fill-rule:evenodd;stroke-width:0.794815;stroke-linecap:round;stroke-linejoin:round;stroke-miterlimit:1.5"
           d="m 96.272136,345.60547 a 0.2645835,0.2645835 0 0 0 -0.185547,0.0801 c -0.105422,0.10692 -0.466797,0.31054 -0.466797,0.31054 a 0.2645835,0.2645835 0 0 0 -0.113281,0.35547 0.2645835,0.2645835 0 0 0 0.355468,0.11328 c 0,0 0.366537,-0.16982 0.601563,-0.4082 a 0.2645835,0.2645835 0 0 0 -0.0039,-0.375 0.2645835,0.2645835 0 0 0 -0.1875,-0.0762 z"
           id="path57779" />
        <path
           id="path60649"
           style="color:#000000;clip-rule:evenodd;fill:#28a7bd;fill-rule:evenodd;stroke-width:0.794815;stroke-linecap:round;stroke-linejoin:round;stroke-miterlimit:1.5"
           d="m 92.421233,349.96886 c -0.131246,0.13342 -0.240146,0.27937 -0.32866,0.43718 a 0.2645835,0.2645835 0 0 0 0.245978,0.092 c -0.0088,0.002 0.08286,0.009 0.09767,0.014 a 0.26460996,0.26460996 0 0 0 0.01344,0.002 c 0,0 0.312902,0.0804 0.517798,0.39843 a 0.2645835,0.2645835 0 0 0 0.365352,0.0785 0.2645835,0.2645835 0 0 0 0.07803,-0.36536 c -0.318923,-0.49507 -0.827233,-0.62048 -0.829924,-0.62115 -5.29e-4,-1.8e-4 -0.0016,-0.002 -0.0021,-0.002 -0.04946,-0.0148 -0.100254,-0.0276 -0.157615,-0.0331 z m 1.319819,1.46657 a 0.2645835,0.2645835 0 0 0 -0.265618,0.26355 v 1.31517 h 0.529167 v -1.31517 a 0.2645835,0.2645835 0 0 0 -0.263549,-0.26355 z" />
        <path
           style="color:#000000;clip-rule:evenodd;fill:#1d2c39;fill-rule:evenodd;stroke-width:0.794815;stroke-linecap:round;stroke-linejoin:round;stroke-miterlimit:1.5"
           d="m 95.621745,345.99414 c 0,0 -0.348236,0.17473 -0.734375,0.27734 -0.193069,0.0513 -0.394256,0.0829 -0.544922,0.0723 -0.150665,-0.0106 -0.22925,-0.0497 -0.279297,-0.11914 a 0.2645835,0.2645835 0 0 0 -0.36914,-0.0605 0.2645835,0.2645835 0 0 0 -0.06055,0.36914 c 0.164179,0.22793 0.427398,0.32065 0.671875,0.33789 0.244477,0.0173 0.492076,-0.0276 0.71875,-0.0879 0.453347,-0.12047 0.835937,-0.3164 0.835937,-0.3164 a 0.2645835,0.2645835 0 0 0 0.117188,-0.35547 0.2645835,0.2645835 0 0 0 -0.355469,-0.11719 z"
           id="path405959" />
      </g>
      <path
         id="path445994"
         style="color:#000000;clip-rule:evenodd;fill:#ea4343;fill-opacity:1;fill-rule:evenodd;stroke-width:3.00403;stroke-linecap:round;stroke-linejoin:round;stroke-miterlimit:1.5"
         d="m 384.05859,263.71094 c -0.17836,0.15459 -0.35095,0.3135 -0.51367,0.47851 -1.75582,1.78065 -2.44922,4.14129 -2.44922,7.0586 v 2.46484 c 0,0.52645 0.20903,1.03731 0.58203,1.41016 0.37342,0.37341 0.87393,0.58398 1.40235,0.58398 h 11.49219 c -0.16393,-2.98765 -1.09378,-5.82349 -3.20704,-7.9668 -1.8743,-1.90093 -4.30992,-3.0951 -7.30664,-4.02929 z"
         transform="matrix(0.26458334,0,0,0.26458334,0,280.06666)" />
      <path
         style="color:#000000;clip-rule:evenodd;fill:#ffbb41;fill-rule:evenodd;stroke-width:0.794815;stroke-linecap:round;stroke-linejoin:round;stroke-miterlimit:1.5"
         d="m 99.226562,350.36523 a 0.26460996,0.26460996 0 0 0 -0.06445,0.008 c -1.003164,0.2586 -1.707005,0.56399 -2.171875,1.03515 -0.46487,0.47116 -0.65039,1.09698 -0.65039,1.86914 0,0.2284 0.0015,0.43603 0.002,0.65235 4.79e-4,0.2873 0.239802,0.52539 0.527344,0.52539 h 6.291019 c 0.13929,0 0.27437,-0.0556 0.37304,-0.1543 0.0989,-0.0988 0.1543,-0.23129 0.1543,-0.37109 v -0.65235 c 0,-0.77198 -0.18387,-1.39797 -0.64844,-1.86914 -0.46456,-0.47116 -1.16729,-0.7762 -2.17187,-1.03515 a 0.26460996,0.26460996 0 0 0 -0.0664,-0.008 z"
         id="path405833" />
      <path
         style="color:#000000;clip-rule:evenodd;fill:#f8c09d;fill-rule:evenodd;stroke-width:0.794815;stroke-linecap:round;stroke-linejoin:round;stroke-miterlimit:1.5"
         d="m 99.349609,349.25 a 0.26460996,0.26460996 0 0 0 -0.263672,0.23828 l -0.121093,1.17383 a 0.26460996,0.26460996 0 0 0 -0.002,0.0273 c 0,0.57707 0.473548,1.04883 1.050776,1.04883 0.57749,0 1.05274,-0.47345 1.05274,-1.05078 a 0.26460996,0.26460996 0 0 0 -0.002,-0.0254 l -0.12109,-1.17383 A 0.26460996,0.26460996 0 0 0 100.68164,349.25 Z"
         id="path405841" />
      <path
         id="path57743"
         style="color:#000000;clip-rule:evenodd;fill:#ec7523;fill-rule:evenodd;stroke-width:0.794815;stroke-linecap:round;stroke-linejoin:round;stroke-miterlimit:1.5"
         d="m 103.04333,351.4127 c -0.0602,0.006 -0.11315,0.0192 -0.16434,0.0346 -0.005,0.001 -0.51184,0.1253 -0.82992,0.61908 a 0.2645835,0.2645835 0 0 0 0.0801,0.36742 0.2645835,0.2645835 0 0 0 0.36484,-0.0801 c 0.20489,-0.31808 0.51779,-0.39687 0.51779,-0.39687 a 0.26460996,0.26460996 0 0 0 0.0119,-0.004 c 0.0147,-0.004 0.10805,-0.0104 0.0992,-0.0119 a 0.2645835,0.2645835 0 0 0 0.2465,-0.0941 c -0.088,-0.15695 -0.19597,-0.30191 -0.32608,-0.43459 z m -6.057515,5.2e-4 c -0.130966,0.13356 -0.239708,0.27959 -0.328147,0.4377 a 0.2645835,0.2645835 0 0 0 0.242879,0.0904 c -0.0088,0.002 0.08441,0.007 0.09922,0.0119 a 0.26460996,0.26460996 0 0 0 0.01188,0.004 c 0,0 0.312904,0.0783 0.517797,0.39636 a 0.2645835,0.2645835 0 0 0 0.364837,0.0801 0.2645835,0.2645835 0 0 0 0.0801,-0.36742 c -0.318087,-0.49379 -0.824577,-0.61775 -0.829924,-0.61908 -0.04953,-0.0149 -0.100772,-0.0281 -0.158647,-0.0341 z m 1.324983,1.464 a 0.2645835,0.2645835 0 0 0 -0.264068,0.26561 v 1.31259 h 0.529686 v -1.31259 a 0.2645835,0.2645835 0 0 0 -0.265618,-0.26561 z m 3.410132,0 a 0.2645835,0.2645835 0 0 0 -0.26562,0.26561 v 1.31259 h 0.52916 v -1.31259 a 0.2645835,0.2645835 0 0 0 -0.26354,-0.26561 z" />
      <path
         id="path430869"
         style="color:#000000;clip-rule:evenodd;fill:#ef937e;fill-opacity:1;fill-rule:evenodd;stroke-width:0.794815;stroke-linecap:round;stroke-linejoin:round;stroke-miterlimit:1.5"
         d="m 99.349494,349.25004 a 0.26460996,0.26460996 0 0 0 -0.263549,0.23822 l -0.06408,0.62167 c 0.268616,0.25801 0.613918,0.41548 0.999425,0.41548 0.37901,0 0.72007,-0.15289 0.98702,-0.40359 l -0.0651,-0.63356 a 0.26460996,0.26460996 0 0 0 -0.26149,-0.23822 z" />
      <path
         style="color:#000000;clip-rule:evenodd;fill:#f8c09d;fill-rule:evenodd;stroke-width:0.794815;stroke-linecap:round;stroke-linejoin:round;stroke-miterlimit:1.5"
         d="m 100.42578,346.5625 -1.521483,0.19336 A 0.26460996,0.26460996 0 0 0 98.6875,346.9375 l -0.230469,0.71484 a 0.26460996,0.26460996 0 0 0 -0.01172,0.0801 v 0.42578 c 0,0.98771 0.680183,1.83789 1.576169,1.83789 0.8381,0 1.48942,-0.74679 1.56836,-1.64843 a 0.26460996,0.26460996 0 0 0 0.002,-0.0234 V 347.5 a 0.26460996,0.26460996 0 0 0 -0.10157,-0.20898 l -0.86718,-0.67579 a 0.26460996,0.26460996 0 0 0 -0.19727,-0.0527 z"
         id="path405861" />
      <path
         style="color:#000000;clip-rule:evenodd;fill:#3a4d5c;fill-rule:evenodd;stroke-width:0.794815;stroke-linecap:round;stroke-linejoin:round;stroke-miterlimit:1.5"
         d="m 100.0293,345.78711 c -0.581794,-0.0486 -1.142747,0.20438 -1.523441,0.56055 -0.190346,0.17808 -0.33924,0.3854 -0.410156,0.61914 -0.07092,0.23373 -0.04757,0.50685 0.109375,0.72461 0.16418,0.22793 0.427398,0.32064 0.671875,0.33789 0.244478,0.0172 0.490123,-0.0277 0.716797,-0.0879 0.358235,-0.0952 0.54563,-0.19426 0.66211,-0.25 0.0987,0.11247 0.28776,0.34173 0.60937,0.56445 0.198,0.13711 0.41379,0.28055 0.69727,0.20508 0.14174,-0.0377 0.26945,-0.15631 0.33203,-0.29297 0.0626,-0.13667 0.084,-0.29213 0.084,-0.48242 0,-0.71528 -0.20345,-1.20983 -0.57813,-1.49805 -0.37468,-0.28822 -0.85328,-0.35722 -1.37109,-0.40039 z"
         id="path405967" />
      <path
         style="color:#000000;clip-rule:evenodd;fill:#1d2c39;fill-rule:evenodd;stroke-width:0.794815;stroke-linecap:round;stroke-linejoin:round;stroke-miterlimit:1.5"
         d="m 100.37695,347.04687 c -0.10357,0.0633 -0.18554,0.10743 -0.18554,0.10743 a 0.2645835,0.2645835 0 0 0 -0.11328,0.35547 0.2645835,0.2645835 0 0 0 0.35546,0.11328 c 0,0 0.0983,-0.0495 0.21875,-0.12305 a 0.2645835,0.2645835 0 0 0 0.0879,-0.36523 0.2645835,0.2645835 0 0 0 -0.36328,-0.0879 z"
         id="path59832" />
      <path
         style="color:#000000;clip-rule:evenodd;fill:#1d2c39;fill-rule:evenodd;stroke-width:0.794815;stroke-linecap:round;stroke-linejoin:round;stroke-miterlimit:1.5"
         d="m 100.19336,347.15234 c 0,0 -0.348235,0.17473 -0.734376,0.27735 -0.19307,0.0513 -0.394256,0.0829 -0.544922,0.0723 -0.150665,-0.0106 -0.22925,-0.0497 -0.279296,-0.11914 a 0.2645835,0.2645835 0 0 0 -0.369141,-0.0605 0.2645835,0.2645835 0 0 0 -0.06055,0.36914 c 0.16418,0.22793 0.427398,0.32064 0.671875,0.33789 0.244478,0.0172 0.490123,-0.0277 0.716797,-0.0879 0.453353,-0.12048 0.837893,-0.31641 0.837893,-0.31641 a 0.2645835,0.2645835 0 0 0 0.11719,-0.35547 0.2645835,0.2645835 0 0 0 -0.35547,-0.11719 z"
         id="path405981" />
    </g>
  </g>
</svg>
