<?xml version="1.0" encoding="UTF-8" standalone="no"?>
<svg
   xmlns:dc="http://purl.org/dc/elements/1.1/"
   xmlns:cc="http://creativecommons.org/ns#"
   xmlns:rdf="http://www.w3.org/1999/02/22-rdf-syntax-ns#"
   xmlns:svg="http://www.w3.org/2000/svg"
   xmlns="http://www.w3.org/2000/svg"
   xmlns:sodipodi="http://sodipodi.sourceforge.net/DTD/sodipodi-0.dtd"
   xmlns:inkscape="http://www.inkscape.org/namespaces/inkscape"
   sodipodi:docname="User Target.svg"
   inkscape:version="1.0 (4035a4fb49, 2020-05-01)"
   id="svg831"
   version="1.1"
   viewBox="0 0 22.577778 22.577778"
   height="64pt"
   width="64pt"
   inkscape:export-filename="/media/taufikramadhan/Data/Tr Design Studio/Project Design/TR Creative Design/Icon Design/Project Hiring/Icon Icons/007 - Design And Development/Send/1 - Line/SVG/10. Content Design.png"
   inkscape:export-xdpi="576"
   inkscape:export-ydpi="576">
  <defs
     id="defs825">
    <pattern
       y="0"
       x="0"
       height="6"
       width="6"
       patternUnits="userSpaceOnUse"
       id="EMFhbasepattern" />
    <pattern
       y="0"
       x="0"
       height="6"
       width="6"
       patternUnits="userSpaceOnUse"
       id="EMFhbasepattern-9" />
    <pattern
       y="0"
       x="0"
       height="6"
       width="6"
       patternUnits="userSpaceOnUse"
       id="EMFhbasepattern-0" />
    <pattern
       y="0"
       x="0"
       height="6"
       width="6"
       patternUnits="userSpaceOnUse"
       id="EMFhbasepattern-7" />
    <pattern
       y="0"
       x="0"
       height="6"
       width="6"
       patternUnits="userSpaceOnUse"
       id="EMFhbasepattern-2" />
    <pattern
       y="0"
       x="0"
       height="6"
       width="6"
       patternUnits="userSpaceOnUse"
       id="EMFhbasepattern-98" />
    <pattern
       y="0"
       x="0"
       height="6"
       width="6"
       patternUnits="userSpaceOnUse"
       id="EMFhbasepattern-6" />
    <pattern
       y="0"
       x="0"
       height="6"
       width="6"
       patternUnits="userSpaceOnUse"
       id="EMFhbasepattern-01" />
    <pattern
       y="0"
       x="0"
       height="6"
       width="6"
       patternUnits="userSpaceOnUse"
       id="EMFhbasepattern-07" />
    <pattern
       y="0"
       x="0"
       height="6"
       width="6"
       patternUnits="userSpaceOnUse"
       id="EMFhbasepattern-8" />
    <pattern
       y="0"
       x="0"
       height="6"
       width="6"
       patternUnits="userSpaceOnUse"
       id="EMFhbasepattern-4" />
    <pattern
       y="0"
       x="0"
       height="6"
       width="6"
       patternUnits="userSpaceOnUse"
       id="EMFhbasepattern-40" />
    <pattern
       y="0"
       x="0"
       height="6"
       width="6"
       patternUnits="userSpaceOnUse"
       id="EMFhbasepattern-08" />
    <pattern
       y="0"
       x="0"
       height="6"
       width="6"
       patternUnits="userSpaceOnUse"
       id="EMFhbasepattern-04" />
    <pattern
       y="0"
       x="0"
       height="6"
       width="6"
       patternUnits="userSpaceOnUse"
       id="EMFhbasepattern-014" />
    <pattern
       y="0"
       x="0"
       height="6"
       width="6"
       patternUnits="userSpaceOnUse"
       id="EMFhbasepattern-27" />
    <pattern
       y="0"
       x="0"
       height="6"
       width="6"
       patternUnits="userSpaceOnUse"
       id="EMFhbasepattern-09" />
    <pattern
       y="0"
       x="0"
       height="6"
       width="6"
       patternUnits="userSpaceOnUse"
       id="EMFhbasepattern-5" />
    <pattern
       y="0"
       x="0"
       height="6"
       width="6"
       patternUnits="userSpaceOnUse"
       id="EMFhbasepattern-018" />
  </defs>
  <sodipodi:namedview
     inkscape:document-rotation="0"
     inkscape:snap-global="true"
     inkscape:snap-nodes="false"
     inkscape:bbox-nodes="true"
     inkscape:snap-bbox="true"
     showguides="true"
     inkscape:snap-midpoints="true"
     inkscape:snap-smooth-nodes="true"
     inkscape:snap-intersection-paths="true"
     inkscape:object-paths="true"
     inkscape:showpageshadow="false"
     inkscape:pagecheckerboard="true"
     inkscape:window-maximized="1"
     inkscape:window-y="-8"
     inkscape:window-x="-8"
     inkscape:window-height="706"
     inkscape:window-width="1366"
     units="pt"
     showgrid="false"
     inkscape:current-layer="layer1"
     inkscape:document-units="pt"
     inkscape:cy="42.56527"
     inkscape:cx="42.682208"
     inkscape:zoom="4.2757863"
     inkscape:pageshadow="2"
     inkscape:pageopacity="0.0"
     borderopacity="1.0"
     bordercolor="#666666"
     pagecolor="#ffffff"
     id="base">
    <inkscape:grid
       id="grid1378"
       type="xygrid" />
    <sodipodi:guide
       inkscape:locked="false"
       id="guide1380"
       orientation="78.000048,0"
       position="0.97013831,21.607643" />
    <sodipodi:guide
       inkscape:locked="false"
       id="guide1382"
       orientation="0,78.000005"
       position="0.97013831,0.97013129" />
    <sodipodi:guide
       inkscape:locked="false"
       id="guide1384"
       orientation="-78.000048,0"
       position="21.607639,0.97013129" />
    <sodipodi:guide
       inkscape:locked="false"
       id="guide1386"
       orientation="0,-78.000005"
       position="21.607639,21.607643" />
  </sodipodi:namedview>
  <metadata
     id="metadata828">
    <rdf:RDF>
      <cc:Work
         rdf:about="">
        <dc:format>image/svg+xml</dc:format>
        <dc:type
           rdf:resource="http://purl.org/dc/dcmitype/StillImage" />
        <dc:title></dc:title>
      </cc:Work>
    </rdf:RDF>
  </metadata>
  <g
     transform="translate(0,-274.42223)"
     id="layer1"
     inkscape:groupmode="layer"
     inkscape:label="Icon">
    <g
       style="stroke-width:0.794624"
       id="g34163"
       transform="matrix(1.2584564,0,0,1.2584564,-114.52599,-39.009338)">
      <path
         style="color:#000000;clip-rule:evenodd;fill:#dc1c4b;fill-rule:evenodd;stroke-width:0.794624;stroke-linecap:round;stroke-linejoin:round;stroke-miterlimit:1.5"
         d="m 97.609375,252.25977 a 0.26184319,0.26184319 0 0 0 -0.08984,0.0156 c -2.45859,0.89319 -4.276414,3.1224 -4.574219,5.80859 a 0.26184319,0.26184319 0 0 0 -0.002,0.0215 l -0.0332,1.04687 a 0.26184319,0.26184319 0 0 0 0,0.0195 c 0.153607,3.5427 2.944894,6.40968 6.457031,6.67969 a 0.26184319,0.26184319 0 0 0 0.01953,0 h 1.175783 a 0.26184319,0.26184319 0 0 0 0.0215,0 c 3.51214,-0.27001 6.30343,-3.13699 6.45704,-6.67969 a 0.26184319,0.26184319 0 0 0 0,-0.0195 l -0.0352,-1.04687 a 0.26184319,0.26184319 0 0 0 0,-0.0215 c -0.2978,-2.68619 -2.11758,-4.9154 -4.57617,-5.80859 a 0.26184319,0.26184319 0 0 0 -0.0879,-0.0156 z"
         id="path767336" />
      <path
         id="path37725"
         style="color:#000000;clip-rule:evenodd;fill:#b31e48;fill-opacity:1;fill-rule:evenodd;stroke-width:0.794624;stroke-linecap:round;stroke-linejoin:round;stroke-miterlimit:1.5"
         d="m 97.609537,252.25977 a 0.26184319,0.26184319 0 0 0 -0.08992,0.016 c -1.213715,0.44094 -2.270855,1.20781 -3.066479,2.19418 0.596766,-0.48201 1.273501,-0.86895 2.008146,-1.13585 a 0.26184319,0.26184319 0 0 1 0.08992,-0.016 h 4.732006 a 0.26184319,0.26184319 0 0 1 0.0879,0.016 c 2.45858,0.89319 4.27866,3.12224 4.57646,5.80843 a 0.26184319,0.26184319 0 0 1 0,0.0217 l 0.0351,1.04645 a 0.26184319,0.26184319 0 0 1 0,0.0196 c -0.067,1.54459 -0.63578,2.96069 -1.54667,4.08916 1.51757,-1.22532 2.51493,-3.07005 2.605,-5.14749 a 0.26184319,0.26184319 0 0 0 0,-0.0196 l -0.0351,-1.04696 a 0.26184319,0.26184319 0 0 0 0,-0.0212 c -0.2978,-2.68619 -2.11787,-4.91524 -4.57646,-5.80843 a 0.26184319,0.26184319 0 0 0 -0.0879,-0.016 z" />
      <path
         style="color:#000000;clip-rule:evenodd;fill:#e8e8d9;fill-rule:evenodd;stroke-width:0.794624;stroke-linecap:round;stroke-linejoin:round;stroke-miterlimit:1.5"
         d="m 97.980469,253.79883 a 0.26184319,0.26184319 0 0 0 -0.09766,0.0195 c -1.998691,0.80454 -3.410156,2.76238 -3.410156,5.04492 0,2.81261 2.1458,5.13404 4.888672,5.41016 a 0.26184319,0.26184319 0 0 0 0.02539,0.002 h 1.175785 a 0.26184319,0.26184319 0 0 0 0.0273,-0.002 c 2.74288,-0.27612 4.88672,-2.59755 4.88672,-5.41016 0,-2.28254 -1.41147,-4.24038 -3.41015,-5.04492 a 0.26184319,0.26184319 0 0 0 -0.0977,-0.0195 z"
         id="path767344" />
      <path
         id="path41246"
         style="color:#000000;clip-rule:evenodd;fill:#d6d6c9;fill-opacity:1;fill-rule:evenodd;stroke-width:0.794624;stroke-linecap:round;stroke-linejoin:round;stroke-miterlimit:1.5"
         d="m 103.31695,263.19838 c 0.6907,-0.91174 1.10122,-2.04686 1.10122,-3.2768 0,-2.81261 -2.14416,-5.1344 -4.887035,-5.41052 a 0.26184319,0.26184319 0 0 0 -0.02739,-0.002 h -1.175636 a 0.26184319,0.26184319 0 0 0 -0.02532,0.002 c -1.018664,0.10254 -1.954922,0.48772 -2.729547,1.07487 0.889365,-1.17414 2.244111,-1.9778 3.78788,-2.13321 a 0.26184319,0.26184319 0 0 1 0.02532,-0.002 h 1.175638 a 0.26184319,0.26184319 0 0 1 0.0274,0.002 c 2.74288,0.27612 4.88704,2.59792 4.88704,5.41053 0,1.7687 -0.84805,3.34188 -2.15956,4.33513 z" />
      <path
         id="path767408"
         style="color:#000000;clip-rule:evenodd;fill:#2c3d49;fill-rule:evenodd;stroke-width:1.57263px;stroke-linecap:round;stroke-linejoin:round;stroke-miterlimit:1.5"
         d="m 400.85938,-83.962891 a 0.98964354,0.98964354 0 0 0 -0.54688,0.169922 l -2.71289,1.808594 h -1.6875 a 0.98954459,0.98954459 0 0 0 -0.98828,0.990234 0.98954459,0.98954459 0 0 0 0.98828,0.988282 h 1.67578 l 2.72461,1.816406 a 0.98964354,0.98964354 0 0 0 0.54688,0.162109 h 5.86132 a 0.98964354,0.98964354 0 0 0 0.98828,-0.990234 v -3.955078 a 0.98964354,0.98964354 0 0 0 -0.98828,-0.990235 z"
         transform="matrix(0.26458334,0,0,0.26458334,0,280.06666)" />
      <path
         id="path767430"
         style="color:#000000;clip-rule:evenodd;fill:#2c3d49;fill-rule:evenodd;stroke-width:3.00331;stroke-linecap:round;stroke-linejoin:round;stroke-miterlimit:1.5"
         d="m 349.00195,-83.962891 a 0.98964354,0.98964354 0 0 0 -0.99023,0.990235 v 3.955078 a 0.98964354,0.98964354 0 0 0 0.99023,0.990234 h 5.85352 a 0.98964354,0.98964354 0 0 0 0.55273,-0.162109 l 2.72461,-1.816406 h 1.67578 a 0.98954459,0.98954459 0 0 0 0.98829,-0.988282 0.98954459,0.98954459 0 0 0 -0.98829,-0.990234 h -1.6875 l -2.71289,-1.808594 a 0.98964354,0.98964354 0 0 0 -0.55273,-0.169922 z"
         transform="matrix(0.26458334,0,0,0.26458334,0,280.06666)" />
      <path
         style="color:#000000;clip-rule:evenodd;fill:#f8c09d;fill-opacity:1;fill-rule:evenodd;stroke-width:0.794624;stroke-linecap:round;stroke-linejoin:round;stroke-miterlimit:1.5"
         d="m 98.994141,255.19922 a 0.26184319,0.26184319 0 0 0 -0.261719,0.23242 l -0.173828,1.5625 a 0.26184319,0.26184319 0 0 0 0.0039,0.0762 l 0.195312,1.05274 a 0.26184319,0.26184319 0 0 0 0.271485,0.21289 l 1.994139,-0.10742 A 0.26184319,0.26184319 0 0 0 101.26758,258 l 0.12305,-0.94336 a 0.26184319,0.26184319 0 0 0 0,-0.0625 l -0.17383,-1.5625 a 0.26184319,0.26184319 0 0 0 -0.25977,-0.23242 z"
         id="path767352" />
      <path
         style="color:#000000;clip-rule:evenodd;fill:#2c3d49;fill-rule:evenodd;stroke-width:0.794624;stroke-linecap:round;stroke-linejoin:round;stroke-miterlimit:1.5"
         d="m 101.93164,249.83789 a 0.26184319,0.26184319 0 0 0 -0.28125,0.11719 c 0,0 -0.24095,0.40039 -0.75586,0.40039 -0.29236,0 -0.6797,-0.0634 -1.062499,-0.11328 -0.382794,-0.0499 -0.759183,-0.0939 -1.095703,-0.01 -0.664934,0.16623 -1.068973,0.61061 -1.234375,1.11719 -0.165402,0.50658 -0.123645,1.06342 -0.002,1.55469 0.03384,0.13661 0.07737,0.24979 0.152344,0.3457 0.07498,0.0959 0.19802,0.16984 0.322265,0.17773 0.248491,0.0158 0.391038,-0.12991 0.511719,-0.25781 0.173375,-0.18375 0.232853,-0.31573 0.296875,-0.42969 0.827884,0.33914 1.678944,0.34398 2.509764,0.002 0.0712,0.13776 0.17566,0.3602 0.38086,0.60937 0.0661,0.0802 0.135,0.15432 0.22265,0.21485 0.0877,0.0605 0.22532,0.12461 0.38282,0.0684 0.15749,-0.0563 0.23114,-0.19672 0.26758,-0.32422 0.0364,-0.12751 0.0508,-0.27487 0.0508,-0.46875 0,-0.69642 0.0977,-1.32337 0.0879,-1.84571 -0.005,-0.26117 -0.0348,-0.50421 -0.15039,-0.71875 -0.1156,-0.21453 -0.33367,-0.37751 -0.60352,-0.43945 z"
         id="path767444" />
      <path
         id="path32058"
         style="color:#000000;clip-rule:evenodd;fill:#ef937e;fill-opacity:1;fill-rule:evenodd;stroke-width:3.00331;stroke-linecap:round;stroke-linejoin:round;stroke-miterlimit:1.5"
         d="m 374.15039,-93.986328 a 0.98964354,0.98964354 0 0 0 -0.98828,0.876953 l -0.25977,2.333984 c 0.64945,0.519109 1.26125,1.008295 1.88282,1.503907 1.80531,1.440037 4.38723,1.438789 6.1875,-0.0059 0.60729,-0.48729 1.20456,-0.967904 1.83984,-1.478515 l -0.26172,-2.353516 a 0.98964354,0.98964354 0 0 0 -0.98047,-0.876953 z"
         transform="matrix(0.26458334,0,0,0.26458334,0,280.06666)" />
      <path
         style="color:#000000;clip-rule:evenodd;fill:#f8c09d;fill-rule:evenodd;stroke-width:0.794624;stroke-linecap:round;stroke-linejoin:round;stroke-miterlimit:1.5"
         d="m 98.720703,252.19336 c -0.110978,-0.0415 -0.249564,0.0183 -0.285156,0.13672 0,0 -0.08411,0.16471 -0.199219,0.32422 -0.05755,0.0797 -0.12259,0.15696 -0.175781,0.20312 -0.03135,0.025 -0.04383,0.0386 -0.06445,0.0488 -0.131738,0.0639 -0.258468,0.13948 -0.261719,0.2817 l -0.01563,0.92728 c -3e-6,6.7e-4 -3e-6,0.001 0,0.002 -0.0059,0.4047 0.175633,0.78853 0.492187,1.04101 0.272077,0.21708 0.637248,0.50946 0.951172,0.75977 0.477656,0.38101 1.160403,0.38023 1.636723,-0.002 0.31133,-0.24981 0.67349,-0.54132 0.94336,-0.75782 0.31454,-0.25234 0.49579,-0.63583 0.49023,-1.03906 l -0.0137,-0.84766 c -6.1e-4,-0.05 -0.0155,-0.0988 -0.043,-0.14062 -3e-5,-5e-5 -0.0234,-0.0292 -0.0234,-0.0293 -7e-5,-8e-5 -0.006,-0.008 -0.008,-0.01 -0.003,-0.003 -0.005,-0.003 -0.006,-0.004 -0.002,-0.002 -10e-4,-0.003 -0.002,-0.004 l -0.008,-0.008 c -0.007,-0.008 -0.0206,-0.0219 -0.041,-0.0469 -0.0409,-0.0499 -0.11057,-0.13969 -0.20898,-0.29102 v -0.002 c -0.0703,-0.10783 -0.22852,-0.4082 -0.22852,-0.40821 -0.0668,-0.12733 -0.22368,-0.17702 -0.35156,-0.11132 -0.7569,0.38582 -1.481768,0.40333 -2.239902,0.11458 z"
         id="path767452"
         sodipodi:nodetypes="ccccccccccssccscssscccccccc" />
      <path
         id="path767360"
         style="color:#000000;clip-rule:evenodd;fill:#6acce2;fill-rule:evenodd;stroke-width:3.00331;stroke-linecap:round;stroke-linejoin:round;stroke-miterlimit:1.5"
         d="m 370.03125,-87.078125 c -2.00303,0.06992 -3.70522,0.905782 -5.01172,2.164063 -1.30649,1.258242 -2.24093,2.924826 -2.87891,4.738281 a 0.98964354,0.98964354 0 0 0 -0.008,0.0078 l -2.06836,6.105469 c 1.0975,3.171167 3.02889,5.951976 5.53321,8.080078 l 2.96484,-3.179687 -0.35156,5.037109 c 2.24921,1.323926 4.80146,2.18849 7.52734,2.462891 h 4.24414 c 2.72589,-0.274401 5.27813,-1.138965 7.52735,-2.462891 l -0.35157,-5.037109 2.96094,3.18164 c 2.50481,-2.12754 4.43694,-4.907293 5.53516,-8.078125 l -2.07422,-6.109375 a 0.98964354,0.98964354 0 0 0 0,-0.002 0.98964354,0.98964354 0 0 0 0,-0.002 0.98964354,0.98964354 0 0 0 0,-0.002 0.98964354,0.98964354 0 0 0 0,-0.002 c -0.63799,-1.813455 -1.57244,-3.480039 -2.87891,-4.738281 -1.30651,-1.258281 -3.01649,-2.094066 -5.01953,-2.164063 a 0.98964354,0.98964354 0 0 0 -0.36133,0.05859 l -7.46289,2.65039 -7.45703,-2.65039 a 0.98964354,0.98964354 0 0 0 -0.36914,-0.05859 z m 26.45117,16.126953 c -0.041,0.08184 -0.0829,0.16293 -0.125,0.244141 0.0144,-0.02389 0.0286,-0.04841 0.043,-0.07227 a 0.98964354,0.98964354 0 0 0 0.082,-0.171875 z m -37.2207,0.05664 a 0.98964354,0.98964354 0 0 0 0.008,0.02734 c 0.53192,1.125277 1.14573,2.061891 1.78906,2.892579 -0.67638,-0.918215 -1.2784,-1.894594 -1.79687,-2.919922 z m 35.16992,3.220703 c -0.68887,0.901018 -1.44977,1.744332 -2.27539,2.519531 0.86905,-0.70865 1.60529,-1.578796 2.27539,-2.519531 z m -7.26953,5.980469 c -0.074,0.03647 -0.14818,0.07377 -0.22266,0.109375 0.0261,-0.01121 0.052,-0.02189 0.0781,-0.0332 a 0.98964354,0.98964354 0 0 0 0.14453,-0.07617 z m -18.50977,0.04687 a 0.98964354,0.98964354 0 0 0 0.0586,0.03711 c 0.0325,0.01333 0.0651,0.02586 0.0976,0.03906 -0.0523,-0.02491 -0.10416,-0.05083 -0.15625,-0.07617 z"
         transform="matrix(0.26458334,0,0,0.26458334,0,280.06666)" />
      <path
         id="path137233"
         style="color:#000000;clip-rule:evenodd;fill:#28a7bd;fill-rule:evenodd;stroke-width:3.00331;stroke-linecap:round;stroke-linejoin:round;stroke-miterlimit:1.5"
         d="m 369.80273,-74.794922 a 0.98954461,0.98954461 0 0 0 -0.9082,0.916016 l -0.68164,9.753906 c 0.61557,0.362259 1.25379,0.68979 1.91211,0.980469 l 0.74805,-10.59375 a 0.98954461,0.98954461 0 0 0 -0.91407,-1.056641 0.98954461,0.98954461 0 0 0 -0.15625,0 z m 15.96094,0 a 0.98954461,0.98954461 0 0 0 -0.91601,1.056641 l 0.74804,10.59375 c 0.65832,-0.290679 1.29654,-0.61821 1.91211,-0.980469 l -0.68945,-9.753906 a 0.98954461,0.98954461 0 0 0 -1.05469,-0.916016 z m 1.35156,13.125 c -0.0203,0.01 -0.0402,0.02136 -0.0605,0.03125 a 0.98954461,0.98954461 0 0 0 0.0605,-0.03125 z m -18.47265,0.01953 a 0.98954461,0.98954461 0 0 0 0.0156,0.0078 c -0.005,-0.0025 -0.0104,-0.0053 -0.0156,-0.0078 z"
         transform="matrix(0.26458334,0,0,0.26458334,0,280.06666)" />
      <path
         id="path2729"
         style="color:#000000;clip-rule:evenodd;fill:#2c3d49;fill-rule:evenodd;stroke-width:0.794624;stroke-linecap:round;stroke-linejoin:round;stroke-miterlimit:1.5"
         d="m 100.03886,262.30289 a 0.26181701,0.26181701 0 0 0 -0.261485,0.26148 v 0.44648 l -0.478525,0.71779 a 0.26184319,0.26184319 0 0 0 -0.04496,0.14418 v 2.09599 a 0.26184319,0.26184319 0 0 0 0.261482,0.26148 h 1.046968 a 0.26184319,0.26184319 0 0 0 0.262,-0.26148 v -2.09599 a 0.26184319,0.26184319 0 0 0 -0.0429,-0.14418 l -0.48059,-0.72089 v -0.44338 a 0.26181701,0.26181701 0 0 0 -0.262,-0.26148 z" />
      <path
         style="color:#000000;clip-rule:evenodd;fill:#2c3d49;fill-rule:evenodd;stroke-width:0.794624;stroke-linecap:round;stroke-linejoin:round;stroke-miterlimit:1.5"
         d="m 98.306641,256.51758 c -0.130075,-0.0164 -0.287853,-0.0194 -0.441407,0.0762 -0.153553,0.0956 -0.246093,0.2967 -0.246093,0.50195 0,0.23439 0.09767,0.44236 0.21875,0.6543 0.121077,0.21194 0.275172,0.42231 0.427734,0.61328 0.305125,0.38195 0.607422,0.68555 0.607422,0.68555 a 0.26184319,0.26184319 0 0 0 0.371094,0 l 0.916019,-0.91602 a 0.26184319,0.26184319 0 0 0 -0.0215,-0.39062 l -1.308592,-1.04688 a 0.26184319,0.26184319 0 0 0 -0.04687,-0.0293 c 0,0 -0.216412,-0.11571 -0.476562,-0.14844 z"
         id="path767386" />
      <path
         style="color:#000000;clip-rule:evenodd;fill:#2c3d49;fill-rule:evenodd;stroke-width:0.794624;stroke-linecap:round;stroke-linejoin:round;stroke-miterlimit:1.5"
         d="m 101.64453,256.51758 c -0.26015,0.0327 -0.47656,0.14844 -0.47656,0.14844 a 0.26184319,0.26184319 0 0 0 -0.0469,0.0293 l -1.310543,1.04688 a 0.26184319,0.26184319 0 0 0 -0.02148,0.39062 l 0.917973,0.91602 a 0.26184319,0.26184319 0 0 0 0.36914,0 c 0,0 0.30425,-0.3036 0.60938,-0.68555 0.15256,-0.19097 0.30665,-0.40134 0.42773,-0.61328 0.12108,-0.21194 0.21875,-0.41991 0.21875,-0.6543 0,-0.20525 -0.0925,-0.40636 -0.24609,-0.50195 -0.15356,-0.0956 -0.31133,-0.0925 -0.44141,-0.0762 z"
         id="path767394" />
    </g>
  </g>
</svg>
